<svg width="441" height="33" viewBox="0 0 441 33" fill="none" xmlns="http://www.w3.org/2000/svg">
<path d="M438.472 18.6454C439.589 19.8514 440.169 21.4146 440.169 23.3352V32H430.209V26.3723C430.209 24.4518 429.718 23.0225 428.691 22.1739C427.708 21.2806 426.011 20.834 423.599 20.834H334.583V32H324.713V0.51181H426.279C435.435 0.51181 440.035 3.23632 440.035 8.68534V9.17665C440.035 12.5265 438.07 14.8043 434.14 16.0996C435.926 16.5909 437.4 17.4395 438.472 18.6454ZM429.673 10.7399V10.6952C429.673 9.80195 429.361 9.08732 428.691 8.50669C428.065 7.97072 427.038 7.65807 425.698 7.65807H334.583V13.8664H425.698C427.038 13.8664 428.065 13.5537 428.691 13.0178C429.361 12.4371 429.673 11.6778 429.673 10.7399Z" fill="#11C5E3"/>
<path d="M283.538 0.69046H319.493V7.79205H294.079V12.4371H318.912V19.5834H294.079V24.7197H319.984V32H283.538V0.69046Z" fill="#11C5E3"/>
<path d="M254.687 32.536C251.963 32.536 249.506 32.3573 247.228 31.9553C244.95 31.5534 243.03 31.0621 241.511 30.4368C239.948 29.7668 238.608 29.0075 237.402 28.1142C236.196 27.1763 235.258 26.283 234.588 25.3451C233.918 24.4071 233.382 23.4245 232.936 22.3526C232.489 21.2806 232.176 20.298 232.042 19.4494C231.908 18.5561 231.864 17.7075 231.864 16.8589V15.6083C231.864 14.2684 231.998 12.9731 232.266 11.7672C232.534 10.5612 233.159 9.22131 234.097 7.74739C235.08 6.27348 236.33 4.97822 237.893 3.90628C239.457 2.83434 241.69 1.94106 244.593 1.22644C247.451 0.467147 250.846 0.109833 254.687 0.109833H256.563C260.359 0.109833 263.665 0.422483 266.568 1.04778C269.426 1.71774 271.659 2.47703 273.223 3.37031C274.786 4.30826 276.081 5.33553 277.064 6.54146C278.091 7.74739 278.716 8.81933 279.029 9.75728C279.297 10.6952 279.431 11.5885 279.431 12.4371V12.9284H268.086C267.997 12.5711 267.908 12.3031 267.774 12.0351C267.64 11.7672 267.282 11.3205 266.702 10.7399C266.121 10.1593 265.451 9.66795 264.647 9.26598C263.843 8.864 262.637 8.50668 261.074 8.19403C259.466 7.88139 257.68 7.70273 255.625 7.70273C253.168 7.70273 251.069 7.92605 249.372 8.41736C247.63 8.864 246.335 9.4893 245.442 10.2932C244.593 11.1419 243.968 11.9905 243.61 12.8838C243.208 13.7771 243.03 14.7597 243.03 15.8316V16.3229C243.03 17.3502 243.253 18.3328 243.655 19.2707C244.057 20.2087 244.727 21.102 245.62 21.9952C246.514 22.8885 247.809 23.6032 249.551 24.1391C251.293 24.6751 253.347 24.9431 255.714 24.9431C262.727 24.9431 266.836 23.1118 268.086 19.4941C268.131 19.4494 268.131 19.4047 268.131 19.3601H279.476V19.8067C279.476 20.7446 279.342 21.7273 279.029 22.7099C278.672 23.6925 278.002 24.7644 277.019 26.015C275.992 27.2209 274.697 28.2929 273.089 29.2308C271.525 30.1241 269.292 30.9281 266.434 31.598C263.575 32.2233 260.27 32.536 256.563 32.536H254.687Z" fill="#11C5E3"/>
<path d="M216.365 1.09244L232.98 31.9553H222.484L219.58 26.3277H197.293L194.39 31.9553H183.938L200.509 1.09244H216.365ZM200.911 19.3601H216.007L210.112 8.01537H206.762L200.911 19.3601Z" fill="#11C5E3"/>
<path d="M137.115 0.779785H148.995L170.747 20.432V0.779785H181.288V32.0447H170.747L147.611 11.3205V32.0447H137.115V0.779785Z" fill="#11C5E3"/>
<path d="M120.897 16.3676H133.224V22.4419H120.897V16.3676Z" fill="#11C5E3"/>
<path d="M11.3546 24.6751H117.655V32H0.679871V0.422485H117.164V7.61341H11.3546V12.2585H116.583V19.4941H11.3546V24.6751Z" fill="#11C5E3"/>
</svg>
